<?xml version="1.0" standalone="no"?>
<!DOCTYPE svg PUBLIC "-//W3C//DTD SVG 20010904//EN"
 "http://www.w3.org/TR/2001/REC-SVG-20010904/DTD/svg10.dtd">
<svg version="1.0" xmlns="http://www.w3.org/2000/svg"
 width="334.000000pt" height="334.000000pt" viewBox="0 0 334.000000 334.000000"
 preserveAspectRatio="xMidYMid meet">

<g transform="translate(0.000000,334.000000) scale(0.100000,-0.100000)"
fill="#000000" stroke="none">
<path d="M1688 2983 c23 -2 59 -2 80 0 20 2 1 4 -43 4 -44 0 -61 -2 -37 -4z"/>
<path d="M1838 2983 c7 -3 16 -2 19 1 4 3 -2 6 -13 5 -11 0 -14 -3 -6 -6z"/>
<path d="M1878 2983 c7 -3 16 -2 19 1 4 3 -2 6 -13 5 -11 0 -14 -3 -6 -6z"/>
<path d="M1968 2983 c23 -2 61 -2 85 0 23 2 4 4 -43 4 -47 0 -66 -2 -42 -4z"/>
<path d="M2143 2983 c15 -2 37 -2 50 0 12 2 0 4 -28 4 -27 0 -38 -2 -22 -4z"/>
<path d="M2253 2983 c9 -2 25 -2 35 0 9 3 1 5 -18 5 -19 0 -27 -2 -17 -5z"/>
<path d="M2318 2983 c6 -2 18 -2 25 0 6 3 1 5 -13 5 -14 0 -19 -2 -12 -5z"/>
<path d="M2808 2983 c7 -3 16 -2 19 1 4 3 -2 6 -13 5 -11 0 -14 -3 -6 -6z"/>
<path d="M1458 2963 c7 -3 16 -2 19 1 4 3 -2 6 -13 5 -11 0 -14 -3 -6 -6z"/>
<path d="M1398 2953 c7 -3 16 -2 19 1 4 3 -2 6 -13 5 -11 0 -14 -3 -6 -6z"/>
<path d="M1100 2860 c-8 -5 -10 -10 -5 -10 6 0 17 5 25 10 8 5 11 10 5 10 -5
0 -17 -5 -25 -10z"/>
<path d="M819 2683 l-24 -28 28 24 c25 23 32 31 24 31 -2 0 -14 -12 -28 -27z"/>
<path d="M730 2603 l-55 -58 58 55 c53 50 62 60 54 60 -1 0 -27 -26 -57 -57z"/>
<path d="M622 2493 c-52 -63 -121 -171 -166 -261 -37 -73 -96 -238 -96 -263 1
-8 16 33 35 90 45 134 121 278 207 391 73 97 84 119 20 43z"/>
<path d="M1653 2443 c15 -2 39 -2 55 0 15 2 2 4 -28 4 -30 0 -43 -2 -27 -4z"/>
<path d="M1828 2443 c46 -2 118 -2 160 0 42 1 5 3 -83 3 -88 0 -123 -2 -77 -3z"/>
<path d="M2113 2443 c9 -2 23 -2 30 0 6 3 -1 5 -18 5 -16 0 -22 -2 -12 -5z"/>
<path d="M1518 2433 c7 -3 16 -2 19 1 4 3 -2 6 -13 5 -11 0 -14 -3 -6 -6z"/>
<path d="M1458 2423 c7 -3 16 -2 19 1 4 3 -2 6 -13 5 -11 0 -14 -3 -6 -6z"/>
<path d="M1400 2410 c-18 -12 -2 -12 25 0 13 6 15 9 5 9 -8 0 -22 -4 -30 -9z"/>
<path d="M1355 2390 c-3 -6 1 -7 9 -4 18 7 21 14 7 14 -6 0 -13 -4 -16 -10z"/>
<path d="M1158 2267 c-74 -63 -142 -144 -182 -218 -29 -55 -67 -153 -65 -173
0 -6 11 19 24 56 46 133 150 274 265 361 19 14 32 26 28 27 -4 0 -36 -24 -70
-53z"/>
<path d="M2035 2060 c-3 -6 1 -7 9 -4 18 7 21 14 7 14 -6 0 -13 -4 -16 -10z"/>
<path d="M352 1930 c0 -14 2 -19 5 -12 2 6 2 18 0 25 -3 6 -5 1 -5 -13z"/>
<path d="M1842 1867 c-72 -73 -82 -87 -60 -87 6 0 8 3 4 7 -3 4 26 40 66 80
40 40 70 73 67 73 -2 0 -37 -33 -77 -73z"/>
<path d="M331 1788 c-27 -243 31 -536 150 -757 94 -174 256 -354 416 -462 l76
-51 408 408 c224 224 407 410 405 411 -2 2 -65 -56 -140 -129 -76 -73 -143
-133 -149 -133 -7 0 -11 -8 -9 -18 2 -9 -1 -17 -5 -17 -4 0 -9 16 -10 35 -1
20 2 33 6 30 11 -6 36 23 27 32 -3 3 -6 1 -6 -5 0 -7 -5 -12 -11 -12 -5 0 -7
5 -4 10 3 6 2 10 -4 10 -5 0 -12 -6 -14 -12 -4 -8 -8 -6 -12 7 -4 11 -18 29
-32 39 -15 11 -23 14 -19 8 4 -7 5 -12 1 -12 -3 0 -10 10 -15 23 -8 21 -9 21
-9 1 -1 -11 -7 -21 -14 -21 -16 0 -18 26 -4 47 9 12 8 13 -3 3 -9 -9 -19 -9
-34 -1 -17 9 -19 8 -8 -3 6 -7 12 -16 12 -19 0 -9 -42 -6 -57 3 -8 5 -13 3
-13 -3 0 -6 -4 -9 -9 -5 -6 3 -13 0 -18 -7 -14 -21 -86 -84 -82 -71 2 6 114
125 249 263 135 138 245 253 245 254 0 2 -112 -110 -249 -248 -193 -195 -254
-251 -274 -251 -18 -1 -37 12 -61 39 -20 22 -44 48 -53 58 -10 10 -18 24 -18
32 0 8 -5 18 -11 21 -5 4 -15 18 -20 32 -5 14 -18 27 -29 30 -20 5 -25 26 -20
81 1 12 -4 22 -10 22 -6 0 -9 4 -6 9 3 5 -5 12 -19 15 -14 4 -25 11 -25 16 0
5 -7 6 -17 3 -10 -4 -14 -2 -9 5 3 6 2 13 -4 17 -6 3 -13 -1 -16 -9 -3 -9 -10
-13 -15 -10 -5 3 -9 1 -9 -4 0 -5 -7 -9 -15 -9 -11 0 -12 4 -4 14 13 14 10 15
-39 15 -34 0 -34 0 -15 21 17 21 17 21 -8 0 -23 -21 -27 -22 -45 -8 -16 13
-16 14 -1 9 13 -5 16 -2 11 11 -4 10 -14 15 -25 12 -10 -3 -24 1 -30 9 -9 11
-15 11 -25 3 -8 -6 -14 -16 -14 -21 0 -6 7 -5 15 2 12 10 15 10 15 -4 0 -19
-25 -21 -37 -3 -4 6 -7 21 -6 32 2 13 0 15 -3 5 -12 -29 -54 -52 -54 -30 0 6
7 10 16 10 8 0 13 4 10 9 -4 5 -2 11 2 13 5 1 1 11 -8 21 -16 17 -18 17 -17 1
1 -9 -5 -18 -13 -19 -8 -2 -22 -6 -31 -10 -10 -3 -20 -1 -25 6 -4 8 -3 10 4 5
7 -4 12 -2 12 4 0 6 6 8 13 4 6 -4 3 2 -7 14 -21 25 -36 31 -16 7 14 -17 8
-19 -43 -16 -16 1 -26 -3 -23 -8 3 -5 -1 -12 -9 -15 -8 -3 -15 -9 -14 -13 1
-4 0 -17 -2 -28 -8 -55 -14 181 -6 252 4 46 7 91 5 100 -2 10 -10 -35 -17 -99z
m83 -209 c-2 -4 -1 -9 3 -12 5 -2 3 -2 -4 -1 -6 2 -14 -2 -16 -9 -3 -7 -5 -3
-4 9 1 11 7 21 14 21 6 0 10 -4 7 -8z m76 -9 c0 -5 -5 -10 -11 -10 -5 0 -7 5
-4 10 3 6 8 10 11 10 2 0 4 -4 4 -10z m-60 -30 c0 -5 -5 -10 -11 -10 -5 0 -7
5 -4 10 3 6 8 10 11 10 2 0 4 -4 4 -10z m165 -30 c3 -6 -1 -7 -9 -4 -18 7 -21
14 -7 14 6 0 13 -4 16 -10z m-238 -52 c-2 -13 -4 -5 -4 17 -1 22 1 32 4 23 2
-10 2 -28 0 -40z m480 2 c-1 -12 -5 -16 -10 -11 -5 5 -6 14 -3 20 11 16 15 13
13 -9z m-458 -90 c1 -13 0 -13 -9 0 -5 8 -9 26 -9 40 l1 25 8 -25 c4 -14 8
-32 9 -40z m20 -75 c0 -5 -4 -3 -9 5 -5 8 -9 22 -9 30 0 16 17 -16 18 -35z
m1013 -147 c-9 -9 -9 -15 0 -27 10 -14 10 -14 -2 -3 -18 15 -20 34 -6 44 15
10 21 -1 8 -14z m38 -28 c0 -5 -2 -10 -4 -10 -3 0 -8 5 -11 10 -3 6 -1 10 4
10 6 0 11 -4 11 -10z m-20 -125 c-18 -19 -36 -33 -38 -30 -7 6 50 64 62 65 6
0 -5 -16 -24 -35z m-50 -48 c0 -2 -17 -19 -37 -38 l-38 -34 34 38 c33 34 41
42 41 34z"/>
<path d="M901 1834 c0 -11 3 -14 6 -6 3 7 2 16 -1 19 -3 4 -6 -2 -5 -13z"/>
<path d="M887 1751 c-14 -156 41 -372 127 -501 35 -53 104 -127 87 -93 -6 12
-16 25 -22 29 -22 13 -101 146 -125 210 -41 110 -56 191 -55 307 0 59 -1 107
-3 107 -2 0 -6 -27 -9 -59z"/>
<path d="M2839 1773 l-24 -28 28 24 c25 23 32 31 24 31 -2 0 -14 -12 -28 -27z"/>
<path d="M1958 1783 c72 -2 192 -2 265 0 72 1 13 3 -133 3 -146 0 -205 -2
-132 -3z"/>
<path d="M2384 1718 l-19 -23 23 19 c21 18 27 26 19 26 -2 0 -12 -10 -23 -22z"/>
<path d="M1758 1643 c57 -2 147 -2 200 0 53 1 7 3 -103 3 -110 0 -154 -2 -97
-3z"/>
<path d="M2068 1643 c7 -3 16 -2 19 1 4 3 -2 6 -13 5 -11 0 -14 -3 -6 -6z"/>
<path d="M375 1630 c3 -5 11 -10 16 -10 6 0 7 5 4 10 -3 6 -11 10 -16 10 -6 0
-7 -4 -4 -10z"/>
<path d="M660 1578 c0 -11 22 -10 39 1 10 7 7 9 -12 8 -15 -1 -27 -5 -27 -9z"/>
<path d="M740 1586 c0 -2 8 -10 18 -17 15 -13 16 -12 3 4 -13 16 -21 21 -21
13z"/>
<path d="M745 1540 c-3 -5 1 -10 10 -10 9 0 13 5 10 10 -3 6 -8 10 -10 10 -2
0 -7 -4 -10 -10z"/>
<path d="M780 1525 c0 -8 4 -15 10 -15 5 0 7 7 4 15 -4 8 -8 15 -10 15 -2 0
-4 -7 -4 -15z"/>
<path d="M1789 1119 c-217 -221 -393 -406 -391 -411 1 -5 -1 -7 -6 -4 -5 3
-69 -55 -142 -129 l-134 -134 28 -11 c42 -16 207 -67 238 -74 14 -3 33 -9 41
-12 18 -7 127 94 131 120 1 9 5 15 8 14 10 -6 38 24 31 35 -3 5 -2 7 4 4 10
-6 563 543 563 559 0 5 -66 -57 -146 -139 -80 -81 -151 -144 -157 -140 -5 3
-7 2 -4 -4 7 -10 -52 -87 -60 -79 -3 3 6 19 21 36 14 17 26 37 26 43 0 6 -7 2
-15 -9 -13 -16 -14 -16 -9 -1 4 12 1 17 -12 17 -16 0 -17 2 -4 10 10 6 11 10
3 10 -7 0 -13 5 -13 10 0 6 6 10 14 10 9 0 14 9 13 20 -1 11 -5 20 -10 20 -5
0 -7 -6 -4 -13 7 -18 -26 -38 -43 -27 -8 5 -17 7 -20 5 -4 -2 -7 2 -7 10 0 18
9 19 25 3 9 -9 15 -9 24 1 7 7 9 12 3 11 -22 -5 -29 1 -15 11 12 8 10 9 -7 4
-15 -4 -23 -2 -23 6 0 6 -12 -1 -27 -17 -15 -16 -24 -22 -21 -13 4 10 -1 25
-11 36 -10 10 -16 24 -15 31 1 7 0 8 -3 2 -2 -5 -9 -8 -13 -5 -5 3 -12 0 -16
-6 -5 -8 -2 -10 7 -5 8 4 1 -3 -16 -16 -16 -13 -32 -23 -35 -23 -3 0 -27 -21
-55 -47 -27 -26 -51 -45 -54 -43 -2 3 68 77 155 166 420 427 558 569 552 569
-3 0 -183 -181 -399 -401z m-72 -284 c0 -8 -4 -12 -9 -9 -5 3 -6 10 -3 15 9
13 12 11 12 -6z m-247 -68 c0 -2 -15 -16 -32 -33 l-33 -29 29 33 c28 30 36 37
36 29z m299 -74 c-32 -40 -59 -67 -59 -58 0 5 14 24 32 42 34 35 49 44 27 16z
m-379 -6 c0 -2 -15 -16 -32 -33 l-33 -29 29 33 c28 30 36 37 36 29z m290 -92
c-13 -14 -28 -25 -34 -25 -5 0 3 13 19 30 16 16 31 28 33 25 3 -3 -5 -16 -18
-30z"/>
<path d="M2370 1293 l-205 -208 208 205 c192 190 212 210 204 210 -1 0 -94
-93 -207 -207z"/>
<path d="M1809 1363 c-13 -16 -12 -17 4 -4 9 7 17 15 17 17 0 8 -8 3 -21 -13z"/>
<path d="M1684 926 c3 -16 10 -34 15 -39 7 -7 8 0 1 23 -12 42 -23 53 -16 16z"/>
<path d="M2136 798 c-55 -57 -186 -190 -291 -297 l-190 -193 180 5 c429 12
728 137 1032 431 68 65 121 121 118 124 -3 3 -58 -47 -123 -111 -166 -166
-210 -192 -215 -128 -2 26 -11 27 -37 1 -21 -21 -24 -19 -20 15 l2 20 -16 -20
c-9 -12 -15 -15 -16 -7 0 7 -5 10 -10 7 -8 -5 -7 -12 2 -23 9 -12 6 -11 -10 2
-12 11 -22 14 -22 8 0 -16 -42 -10 -58 8 -10 13 -11 13 -6 -1 3 -10 0 -20 -6
-24 -6 -3 -9 -2 -8 3 2 6 0 9 -3 9 -3 -1 -13 4 -22 12 -13 10 -17 10 -17 1 0
-9 -4 -9 -17 1 -11 10 -14 10 -9 2 4 -7 2 -13 -3 -13 -6 0 -11 8 -12 18 0 11
-2 12 -6 4 -4 -10 -8 -10 -21 0 -12 10 -14 10 -8 1 4 -7 2 -13 -3 -13 -6 0
-11 5 -11 10 0 6 -8 10 -17 10 -14 0 -15 -2 -5 -9 10 -6 8 -10 -8 -14 -12 -3
-19 -10 -15 -16 9 -16 -4 -13 -22 5 -13 13 -17 13 -24 2 -7 -11 -9 -11 -9 0 0
8 -5 10 -12 6 -9 -5 -9 -2 1 9 7 9 21 17 30 17 14 0 14 2 1 10 -9 6 -17 5 -22
-3 -6 -9 -10 -9 -17 2 -7 10 -12 8 -25 -10 -9 -13 -16 -19 -16 -13 0 5 5 15
11 21 9 9 5 14 -14 19 -15 3 -24 10 -21 15 3 5 1 9 -5 9 -6 0 -9 -13 -7 -30 2
-16 -1 -30 -5 -30 -8 0 -12 13 -11 30 0 3 -8 6 -19 6 -10 0 -19 -6 -19 -13 0
-7 -6 -12 -12 -10 -7 1 -12 -4 -11 -10 2 -7 -3 -12 -10 -10 -6 1 -11 -4 -10
-10 2 -7 -3 -12 -10 -10 -6 1 -11 -4 -9 -11 1 -8 -2 -11 -6 -8 -11 7 -44 -28
-37 -37 3 -4 2 -5 -2 -2 -4 3 -32 -18 -62 -47 l-55 -53 59 65 c33 36 123 132
201 213 l142 148 386 -3 c212 -2 386 0 386 5 0 4 -174 7 -387 7 l-387 0 -100
-102z m501 -175 c-4 -3 0 -14 9 -24 15 -17 14 -19 -17 -38 -19 -12 -42 -21
-52 -21 -10 0 -16 -4 -13 -9 4 -5 -2 -8 -11 -7 -30 5 -25 23 7 24 35 1 80 26
80 44 0 9 -3 9 -12 0 -7 -7 -19 -12 -27 -12 -11 0 -11 3 4 13 10 8 15 19 11
25 -4 7 0 12 10 12 10 0 14 -3 11 -7z m-127 -133 c-20 -13 -33 -13 -25 0 3 6
14 10 23 10 15 0 15 -2 2 -10z m-55 -30 c-28 -12 -37 -12 -30 0 3 6 16 10 28
9 21 0 21 -1 2 -9z m-635 -13 c0 -2 -15 -16 -32 -33 l-33 -29 29 33 c28 30 36
37 36 29z m578 -8 c-25 -14 -103 -41 -94 -32 8 9 86 41 101 42 6 0 2 -4 -7
-10z m-648 -63 c0 -2 -8 -10 -17 -17 -16 -13 -17 -12 -4 4 13 16 21 21 21 13z
m427 -12 c-3 -3 -12 -4 -19 -1 -8 3 -5 6 6 6 11 1 17 -2 13 -5z m-164 -31 c-7
-2 -19 -2 -25 0 -7 3 -2 5 12 5 14 0 19 -2 13 -5z m-105 -10 c-21 -2 -57 -2
-80 0 -24 2 -7 4 37 4 44 0 63 -2 43 -4z"/>
<path d="M1835 880 c-3 -5 -1 -10 4 -10 6 0 11 5 11 10 0 6 -2 10 -4 10 -3 0
-8 -4 -11 -10z"/>
<path d="M2415 679 c-4 -6 -5 -12 -2 -15 2 -3 7 2 10 11 7 17 1 20 -8 4z"/>
<path d="M2385 670 c-3 -5 -1 -10 4 -10 6 0 11 5 11 10 0 6 -2 10 -4 10 -3 0
-8 -4 -11 -10z"/>
<path d="M2250 650 c0 -19 3 -21 12 -12 9 9 9 15 0 24 -9 9 -12 7 -12 -12z"/>
</g>
</svg>
